<svg width="50" height="50" fill="none" xmlns="http://www.w3.org/2000/svg"><path d="M30.976 15.27c1.244-.734 3.452-3.491 3.452-4.518 0-.611-.24-1.19-1.244-1.19-3.612 0-13.122 6.282-13.122 10.347 0 .534.2 1.149 1.164 1.149 1.123 0 3.21-.287 5.097-.287 2.006 0 3.57.903 4.373 2.134l2.928-.902c.963-.287 2.969-.575 3.37-.575.401 0 .562.245.562.575a.717.717 0 01-.642.698c-.562.082-2.086.329-2.889.575-.803.245-1.725.534-2.768.861.064.27.091.546.08.822C31.337 32.925 22.148 42 17.252 42 14.644 42 13 40.235 13 38.018c0-2.71 2.047-6.24 7.504-10.224 2.89-2.094 5.78-3.367 8.306-4.27-.803-.986-2.047-1.15-3.452-1.15-1.765 0-3.41.367-4.734.367-1.205 0-2.65-.821-2.65-2.587C17.975 14.898 28.49 8 33.627 8c1.284 0 2.688.734 2.688 2.218 0 2.094-3.732 5.83-4.575 6.693-.561.534-.962.903-1.524.903-.561 0-.883-.328-.883-.903s.44-.862 1.644-1.642zm-1.488 9.525c-2.529.904-5.418 2.26-8.226 4.434-4.973 3.82-6.458 6.612-6.458 8.5 0 1.684.924 2.63 2.608 2.63 3.852 0 12.198-8.378 12.198-14.619a3.818 3.818 0 00-.122-.945z" fill="#fff"/></svg>